<svg xmlns="http://www.w3.org/2000/svg" xmlns:xlink="http://www.w3.org/1999/xlink" width="1377.061" height="1082.363" viewBox="0 0 1377.061 1082.363"><defs><style>.a{fill:none;}.b{fill:url(#a);}.c{clip-path:url(#b);}.d{fill:url(#c);}.e{opacity:0.56;}.f{fill:#0b0;}.g{clip-path:url(#e);}.h{mix-blend-mode:hard-light;}.h,.m,.q{isolation:isolate;}.i{fill:#236f00;}.j{fill:url(#g);}.k{fill:url(#h);}.l{fill:#008009;}.m{opacity:0.72;mix-blend-mode:color-dodge;}.n{clip-path:url(#i);}.o{fill:url(#j);}.p{fill:#007600;}.q{fill:#5aff17;opacity:0.18;mix-blend-mode:screen;}.r{fill:url(#k);}.s{fill:url(#l);}.t{fill:url(#m);}</style><linearGradient id="a" y1="0.5" x2="1" y2="0.5" gradientUnits="objectBoundingBox"><stop offset="0" stop-color="#f4f033"/><stop offset="0.995" stop-color="#006700"/><stop offset="1" stop-color="#006700"/></linearGradient><clipPath id="b"><path class="a" d="M733.569,159.99s78.429,172.4,280.32,235.6a44.278,44.278,0,0,1,30.746,47.818c-16.585,130.8-107.148,563.5-589.045,798.943H1738.508V159.99Z" transform="translate(-455.59 -159.99)"/></clipPath><linearGradient id="c" x1="0.284" y1="0.092" x2="1.134" y2="1.656" gradientUnits="objectBoundingBox"><stop offset="0.034" stop-color="#006700"/><stop offset="0.781" stop-color="#ffd500"/></linearGradient><clipPath id="e"><path class="a" d="M733.569,159.99s78.429,172.4,280.32,235.6a44.278,44.278,0,0,1,30.746,47.818c-16.585,130.8-107.148,563.5-589.045,798.943H1789.7V159.99Z" transform="translate(-455.59 -159.99)"/></clipPath><linearGradient id="g" x1="-0.807" y1="1.423" x2="-0.238" y2="3.824" gradientUnits="objectBoundingBox"><stop offset="0" stop-color="#fff100" stop-opacity="0"/><stop offset="1" stop-color="#ffea18"/></linearGradient><linearGradient id="h" x1="0" y1="0.5" x2="1" y2="0.5" xlink:href="#g"/><clipPath id="i"><rect class="a" width="1038.46" height="887.068"/></clipPath><linearGradient id="j" x1="-0.926" y1="15.088" x2="-0.422" y2="13.946" xlink:href="#c"/><linearGradient id="k" x1="92.42" y1="-159.729" x2="94.521" y2="-159.729" xlink:href="#g"/><linearGradient id="l" x1="88.098" y1="-40.415" x2="90.457" y2="-40.415" xlink:href="#g"/><linearGradient id="m" x1="77.709" y1="-129.516" x2="79.81" y2="-129.516" xlink:href="#g"/></defs><g transform="translate(-594.857 0.01)"><g transform="translate(594.857 -0.01)"><path class="b" d="M727.853,159.99s74.474,202.867,274.654,269.979a44.339,44.339,0,0,1,29.53,50.595c-25.155,127.815-137.519,528.994-582.17,761.789h777.953V159.99Z" transform="translate(-449.867 -159.99)"/></g><g transform="translate(637.805 -0.01)"><g class="c"><path class="d" d="M676.443,138.538S108.179,1004.172,426.792,1336.865s1524.1,132.444,1524.1,132.444L1975.957,240.8Z" transform="translate(-642.904 -299.524)"/></g></g><g transform="translate(637.805 -0.01)"><g class="c"><g class="e" transform="translate(0 -226.506)"><path class="f" d="M1472.679,129.807S1326.643,567.66,968.832,753.1L455.59,400.447S1142.3,522.1,1472.679,129.807" transform="translate(-455.59 -129.807)"/></g></g></g><g class="c" transform="translate(637.805 -0.01)"><path class="i" d="M1187.026,957.014l-1.508-2.094c-.518-.721-1.036-1.434-1.554-2.154A1386.073,1386.073,0,0,1,919.088,800.644C775.581,695.357,631.451,545.621,523.14,333.457Q495.9,280.111,471.847,221.438c381.975,208.8,912.613,155.274,1118,458.618-50.287-13.733-333.834,304.177-405.876,272.718" transform="translate(-349.848 239.694)"/><g transform="translate(432.938 886.919)"><path class="j" d="M1072.706,667.346S890.445,496.726,513.281,508.9c0,0,119.186-305.843,521.76-213.268C1176.912,328.251,1283.3,430.972,1283.3,430.972Z" transform="translate(-513.281 -278.176)"/></g><g transform="translate(278.129 -285.198)"><path class="k" d="M1410.8,121.986s-237,304.267-918.151,329.121c0,0,445.74,419.925,1092.216,243.871,227.834-62.054,338.945-219.429,338.945-219.429Z" transform="translate(-492.652 -121.986)"/></g><rect class="a" width="1038.464" height="887.068" transform="translate(-154.29 -402.307)"/><rect class="a" width="739.492" height="668.881" transform="translate(667.389 -155.993)"/><path class="i" d="M1446.6,593.352l-2.371-.135c-.811-.045-1.621-.1-2.432-.143a1273.743,1273.743,0,0,1-261.912,100.612C1021.7,734.937,831.459,750.877,617.5,705.122q-53.806-11.5-109.557-28.367C878.1,525.542,1147.462,116.363,1482.662,145.78c-38.933,27.879,23.316,414.184-40.862,447.294" transform="translate(-115.064 -262.219)"/><path class="l" d="M1318.534,640.027l-2-.112c-.683-.038-1.366-.083-2.042-.12a1073.23,1073.23,0,0,1-220.667,84.763c-133.279,34.76-293.551,48.186-473.814,9.636q-45.331-9.692-92.3-23.894c311.861-127.4,538.795-472.133,821.208-447.346-32.8,23.481,19.639,348.941-34.423,376.842" transform="translate(13.509 501.456)"/><path class="f" d="M1446.595,545.668l-2.372-.135c-.81-.052-1.621-.1-2.424-.143a1273.667,1273.667,0,0,1-261.912,100.6c-158.193,41.259-348.43,57.2-562.4,11.444q-53.807-11.515-109.557-28.367C878.089,477.858,1147.453,68.679,1482.653,98.1c-38.925,27.879,23.316,414.177-40.854,447.293" transform="translate(-115.123 -572.376)"/><path class="i" d="M460.025,650.761l2.319-1.238c.788-.42,1.584-.841,2.379-1.268-1.38-51.24,12.1-110.465,54.993-173.487C586.812,376.174,726,268.3,993.154,167.2c44.786-16.953,93.122-33.71,145.361-50.2C1076.476,365.06,838.09,590.508,492.97,762.322c-14.273-29.9-27.031-68.868-28.247-114.06" transform="translate(-426.743 -439.654)"/><g transform="translate(666.385 -207.377)"><path class="o" d="M1507.867,132.356S1011.652,301.663,544.389,320.079c0,0,361.248,225.11,785.331,124.738C1479.177,409.442,1535.9,323.081,1535.9,323.081Z" transform="translate(-544.389 -132.356)"/></g><g class="h" transform="translate(812.256 -162.989)"><path class="p" d="M896.6,138.271S937.7,304.9,1263.089,455.363c0,0-301.573,113.144-579.416-103.628-97.918-76.4-119.846-175.326-119.846-175.326Z" transform="translate(-563.827 -138.271)"/></g><g transform="translate(-292.943 414.049)"><path class="l" d="M1184.827,215.164s78.339,454.873-149.278,787.446l-618.995-68.1s662.633-217.471,768.273-719.351" transform="translate(-416.554 -215.164)"/></g><path class="q" d="M465.725,495.735s675.023,33.83,950.5-380.219l330.36,18.041S998.884,796.94,465.725,495.735Z" transform="translate(-389.668 -449.268)"/><path class="q" d="M444.722,250.2s445.883,507.922,934.856,417.193l217.148,249.62S599.944,842.554,444.722,250.2Z" transform="translate(-526.28 426.774)"/><path class="r" d="M1681.283,261.724l3.723-10.116C1220.595,98.781,756.476,145.6,469.192,345.774l11.182,10.6C765.789,160.227,1222.726,113.8,1681.283,261.724Z" transform="translate(-367.117 -152.888)"/><path class="s" d="M485.5,888.558l.615,12.855c581.96-48.089,1070.656-315.643,1293.455-669.552l-17.23-6.454C1539.718,574.017,1058.737,837.8,485.5,888.558Z" transform="translate(-261.063 265.51)"/><path class="t" d="M1898.05,291.8l4.51-12.052C1348.868,94.217,794.247,147.145,449.839,384.375L463.122,397.1C805.271,164.676,1351.323,112.167,1898.05,291.8Z" transform="translate(-492.997 -107.47)"/><g transform="translate(1108.065 673.206)"><path class="a" d="M611.659,254.658c-1.013.915-2.026,1.831-3.077,2.777C609.641,256.489,610.646,255.574,611.659,254.658Z" transform="translate(-568.531 -217.436)"/><path class="a" d="M607.89,255.959l-.248.218.413-.36Z" transform="translate(-574.645 -209.904)"/><path class="a" d="M612.225,253.331c-.668.63-1.381,1.291-2.072,1.936C610.844,254.622,611.557,253.961,612.225,253.331Z" transform="translate(-558.313 -226.068)"/><path class="a" d="M612.1,253.971c-.893.818-1.8,1.658-2.724,2.5Q610.765,255.2,612.1,253.971Z" transform="translate(-563.341 -221.905)"/><path class="a" d="M610.59,258.11c-1.824,1.508-3.685,3.047-5.576,4.593-.262.218-.51.428-.781.645,2.2-1.8,4.337-3.565,6.439-5.306Z" transform="translate(-596.819 -195.425)"/><path class="a" d="M608.418,256.447c-.548.473-1.111.953-1.666,1.433C607.307,257.4,607.87,256.92,608.418,256.447Z" transform="translate(-580.441 -205.8)"/><path class="a" d="M608.108,260.637c-1.051.856-2.109,1.7-3.182,2.567-.563.458-1.111.9-1.681,1.366q3.669-2.938,7.167-5.793C609.661,259.384,608.866,260.022,608.108,260.637Z" transform="translate(-603.245 -190.651)"/><path class="a" d="M614,249.976l.24-.278Z" transform="translate(-533.284 -249.698)"/></g></g></g></svg>