<svg xmlns="http://www.w3.org/2000/svg" xmlns:xlink="http://www.w3.org/1999/xlink" viewBox="0 0 1377 1082"><defs/><defs><linearGradient id="a" x2="1" y1=".5" y2=".5" gradientUnits="objectBoundingBox"><stop offset="0" stop-color="#f4f033"/><stop offset="1" stop-color="#006700"/><stop offset="1" stop-color="#006700"/></linearGradient><linearGradient id="c" x1=".3" x2="1.1" y1=".1" y2="1.7" gradientUnits="objectBoundingBox"><stop offset="0" stop-color="#006700"/><stop offset=".8" stop-color="#ffd500"/></linearGradient><linearGradient id="g" x1="-.8" x2="-.2" y1="1.4" y2="3.8" gradientUnits="objectBoundingBox"><stop offset="0" stop-color="#fff100" stop-opacity="0"/><stop offset="1" stop-color="#ffea18"/></linearGradient><linearGradient id="h" x1="0" x2="1" y1=".5" y2=".5" xlink:href="#g"/><linearGradient id="j" x1="-.9" x2="-.4" y1="15.1" y2="13.9" xlink:href="#c"/><linearGradient id="k" x1="92.4" x2="94.5" y1="-159.7" y2="-159.7" xlink:href="#g"/><linearGradient id="l" x1="88.1" x2="90.5" y1="-40.4" y2="-40.4" xlink:href="#g"/><linearGradient id="m" x1="77.7" x2="79.8" y1="-129.5" y2="-129.5" xlink:href="#g"/><clipPath id="b"><path d="M734 160s78 172 280 236a44 44 0 0131 47c-17 131-108 564-589 799h1283V160z" class="a" transform="translate(-456 -160)"/></clipPath><clipPath id="e"><path d="M734 160s78 172 280 236a44 44 0 0131 47c-17 131-108 564-589 799h1334V160z" class="a" transform="translate(-456 -160)"/></clipPath><clipPath id="i"><rect width="1038.5" height="887.1" class="a"/></clipPath><style>.a{fill:none}.b{fill:url(#a)}.c{clip-path:url(#b)}.d{fill:url(#c)}.e{opacity:.56}.f{fill:#0b0}.h{mix-blend-mode:hard-light}.h,.q{isolation:isolate}.i{fill:#236f00}.j{fill:url(#g)}.k{fill:url(#h)}.l{fill:#008009}.o{fill:url(#j)}.p{fill:#007600}.q{fill:#5aff17;opacity:.18;mix-blend-mode:screen}.r{fill:url(#k)}.s{fill:url(#l)}.t{fill:url(#m)}</style></defs><g transform="translate(-595)"><path d="M873 0s74 203 274 270a44 44 0 0130 51c-25 127-137 529-582 761h778V0z" class="b"/><g class="c" transform="translate(638)"><path d="M34-161s-569 866-250 1198 1524 133 1524 133l25-1229z" class="d"/></g><g class="c" transform="translate(638)"><g class="e" transform="translate(0 -227)"><path d="M1017 0S871 438 513 623L0 271S687 392 1017 0" class="f"/></g></g><g class="c" transform="translate(638)"><path d="M837 1197l-1-2-2-3a1386 1386 0 01-265-152 1314 1314 0 01-396-467q-27-53-51-112c382 209 913 155 1118 459-50-14-334 304-406 272" class="i"/><path d="M992 1276s-182-171-559-158c0 0 119-306 522-214a595 595 0 01248 136z" class="j"/><path d="M1196-285S959 19 278 44c0 0 446 420 1092 244 228-62 339-220 339-220z" class="k"/><rect width="1038.5" height="887.1" class="a" transform="translate(-154 -402)"/><rect width="739.5" height="668.9" class="a" transform="translate(667 -156)"/><path d="M1332 331h-5a1274 1274 0 01-262 100c-158 42-349 58-563 12q-53-12-109-28c370-152 639-561 975-531-39 27 23 414-41 447" class="i"/><path d="M1332 1141h-4a1073 1073 0 01-221 85c-133 35-293 48-473 10q-46-10-93-24c312-128 539-472 821-448-32 24 20 349-34 377" class="l"/><path d="M1331-27h-4a1274 1274 0 01-262 101c-158 41-349 57-563 11q-53-11-109-28c370-152 639-561 975-531-39 28 23 414-41 447" class="f"/><path d="M33 211l3-1 2-1C37 157 50 98 93 35c67-98 206-206 473-307 45-17 94-34 146-51C650-75 411 151 66 323c-14-30-27-69-28-114" class="i"/><path d="M1630-207S1134-38 666-20c0 0 362 225 786 125a344 344 0 00206-122z" class="o"/><g class="h" transform="translate(812 -163)"><path d="M333 0s41 167 366 317c0 0-301 113-579-104A339 339 0 010 38z" class="p"/></g><path d="M475 414s79 455-149 787l-619-68s663-217 768-719" class="l"/><path d="M76 46s675 34 951-380l330 18S609 348 76 46zM-82 677s446 508 935 417l217 250S74 1269-82 677z" class="q"/><path d="M1314 109l4-10C853-54 389-7 102 193l11 10C399 7 856-39 1314 109z" class="r"/><path d="M224 1154l1 13c582-48 1071-316 1294-670l-18-6c-222 349-703 612-1277 663z" class="s"/><path d="M1405 184l5-12C856-13 301 40-43 277l13 13C312 57 858 5 1405 184z" class="t"/><g transform="translate(1108 673)"><path d="M43 37l-3 3 3-3zM33 46zM54 27l-2 2 2-2zM49 32l-3 3 3-3zM14 63l-6 4-1 1 7-5zM28 51l-2 1 2-1zM5 70l-3 3-2 1 7-6-2 2zM81 0z" class="a"/></g></g></g></svg>